<?xml version="1.0" standalone="no"?><!DOCTYPE svg PUBLIC "-//W3C//DTD SVG 1.1//EN" "http://www.w3.org/Graphics/SVG/1.1/DTD/svg11.dtd"><svg t="1607043683154" class="icon" viewBox="0 0 1024 1024" version="1.1" xmlns="http://www.w3.org/2000/svg" p-id="16084" xmlns:xlink="http://www.w3.org/1999/xlink" width="200" height="200"><defs><style type="text/css"></style></defs><path d="M509.952 835.584H272.384c-6.144 0-12.288-6.144-12.288-12.288v-108.544c0-6.144-2.048-12.288-4.096-16.384-32.768-49.152-49.152-108.544-49.152-167.936C204.8 362.496 342.016 225.28 509.952 225.28s305.152 137.216 305.152 305.152c0 22.528-2.048 45.056-8.192 67.584-4.096 16.384 6.144 32.768 22.528 36.864 16.384 4.096 32.768-6.144 36.864-22.528 6.144-26.624 8.192-53.248 8.192-81.92C876.544 327.68 712.704 163.84 509.952 163.84S143.36 327.68 143.36 530.432c0 67.584 18.432 135.168 55.296 192.512v100.352c0 40.96 32.768 73.728 73.728 73.728h237.568c16.384 0 30.72-14.336 30.72-30.72s-14.336-30.72-30.72-30.72z" fill="#7dc5eb" p-id="16085"></path><path d="M307.2 448.512c-16.384 0-30.72 14.336-30.72 30.72s14.336 30.72 30.72 30.72h403.456c16.384 0 30.72-14.336 30.72-30.72s-14.336-30.72-30.72-30.72H307.2zM604.16 585.728h-192.512c-16.384 0-30.72 14.336-30.72 30.72s14.336 30.72 30.72 30.72h192.512c16.384 0 30.72-14.336 30.72-30.72s-12.288-30.72-30.72-30.72zM845.824 743.424h-63.488v-63.488c0-16.384-14.336-30.72-30.72-30.72s-30.72 14.336-30.72 30.72v63.488h-63.488c-16.384 0-30.72 14.336-30.72 30.72s14.336 30.72 30.72 30.72h63.488v63.488c0 16.384 14.336 30.72 30.72 30.72s30.72-14.336 30.72-30.72v-63.488h63.488c16.384 0 30.72-14.336 30.72-30.72s-12.288-30.72-30.72-30.72z" fill="#7dc5eb" p-id="16086"></path></svg>